<svg xmlns="http://www.w3.org/2000/svg" xmlns:xlink="http://www.w3.org/1999/xlink" width="500" zoomAndPan="magnify" viewBox="0 0 375 374.999991" height="500" preserveAspectRatio="xMidYMid meet" version="1.0"><defs><clipPath id="2e216172c4"><path d="M 175 145.714844 L 222 145.714844 L 222 182 L 175 182 Z M 175 145.714844 " clip-rule="nonzero"/></clipPath><clipPath id="642cbe1b50"><path d="M 192 175 L 229.066406 175 L 229.066406 222 L 192 222 Z M 192 175 " clip-rule="nonzero"/></clipPath><clipPath id="b6966735d2"><path d="M 152 192 L 199 192 L 199 228.964844 L 152 228.964844 Z M 152 192 " clip-rule="nonzero"/></clipPath><clipPath id="7624b29f39"><path d="M 145.816406 153 L 183 153 L 183 199 L 145.816406 199 Z M 145.816406 153 " clip-rule="nonzero"/></clipPath></defs><rect x="-37.5" width="450" fill="#ffffff" y="-37.499999" height="449.999989" fill-opacity="1"/><rect x="-37.5" width="450" fill="#ffffff" y="-37.499999" height="449.999989" fill-opacity="1"/><rect x="-37.5" width="450" fill="#ffffff" y="-37.499999" height="449.999989" fill-opacity="1"/><g clip-path="url(#2e216172c4)"><path fill="#38b6ff" d="M 219.070312 154.160156 L 214.121094 154.160156 C 212.976562 154.160156 212.058594 155.078125 212.058594 156.21875 L 212.058594 161.167969 C 212.058594 161.78125 211.773438 162.355469 211.300781 162.734375 L 208.390625 165.039062 C 207.894531 165.425781 207.269531 165.578125 206.632812 165.578125 C 206.632812 165.578125 206.621094 165.578125 206.621094 165.578125 L 194.398438 165.578125 C 193.761719 165.578125 193.171875 165.285156 192.78125 164.789062 L 188.761719 159.558594 C 188.101562 158.6875 187.738281 157.628906 187.75 156.535156 L 187.75 147.777344 C 187.75 146.636719 186.828125 145.71875 185.6875 145.71875 L 177.339844 145.71875 C 176.195312 145.71875 175.277344 146.636719 175.277344 147.777344 L 175.277344 156.101562 C 175.277344 157.242188 176.195312 158.160156 177.339844 158.160156 C 177.339844 158.160156 180.347656 158.148438 182.84375 158.136719 C 184.957031 158.125 186.9375 159.101562 188.21875 160.757812 L 191.449219 164.957031 C 191.945312 165.601562 192.347656 166.800781 192.347656 167.613281 L 192.347656 179.808594 C 192.347656 180.949219 193.265625 181.863281 194.410156 181.863281 L 206.621094 181.863281 C 207.765625 181.863281 208.683594 180.949219 208.683594 179.808594 L 208.683594 167.613281 C 208.683594 167.554688 208.683594 167.496094 208.671875 167.4375 C 208.601562 166.613281 208.96875 165.800781 209.617188 165.296875 L 212.058594 163.367188 C 212.480469 163.039062 213.035156 162.980469 213.554688 163.132812 C 213.730469 163.179688 213.917969 163.214844 214.109375 163.214844 L 219.058594 163.214844 C 220.203125 163.214844 221.121094 162.296875 221.121094 161.15625 L 221.121094 156.21875 C 221.132812 155.078125 220.214844 154.160156 219.070312 154.160156 Z M 219.070312 154.160156 " fill-opacity="1" fill-rule="nonzero"/></g><path fill="#38b6ff" d="M 204.429688 152.644531 C 204.429688 153.160156 204.332031 153.660156 204.132812 154.136719 C 203.933594 154.617188 203.652344 155.039062 203.285156 155.40625 C 202.917969 155.769531 202.492188 156.054688 202.015625 156.25 C 201.535156 156.449219 201.035156 156.546875 200.515625 156.546875 C 199.996094 156.546875 199.496094 156.449219 199.019531 156.25 C 198.539062 156.054688 198.117188 155.769531 197.75 155.40625 C 197.382812 155.039062 197.097656 154.617188 196.898438 154.136719 C 196.703125 153.660156 196.601562 153.160156 196.601562 152.644531 C 196.601562 152.125 196.703125 151.628906 196.898438 151.148438 C 197.097656 150.671875 197.382812 150.25 197.75 149.882812 C 198.117188 149.519531 198.539062 149.234375 199.019531 149.039062 C 199.496094 148.839844 199.996094 148.742188 200.515625 148.742188 C 201.035156 148.742188 201.535156 148.839844 202.015625 149.039062 C 202.492188 149.234375 202.917969 149.519531 203.285156 149.882812 C 203.652344 150.25 203.933594 150.671875 204.132812 151.148438 C 204.332031 151.628906 204.429688 152.125 204.429688 152.644531 Z M 204.429688 152.644531 " fill-opacity="1" fill-rule="nonzero"/><g clip-path="url(#642cbe1b50)"><path fill="#5271ff" d="M 220.605469 219.574219 L 220.605469 214.636719 C 220.605469 213.496094 219.683594 212.578125 218.539062 212.578125 L 213.578125 212.578125 C 212.964844 212.578125 212.386719 212.296875 212.007812 211.824219 L 209.699219 208.921875 C 209.308594 208.425781 209.15625 207.804688 209.15625 207.167969 C 209.15625 207.167969 209.15625 207.15625 209.15625 207.15625 L 209.15625 194.964844 C 209.15625 194.328125 209.453125 193.742188 209.945312 193.351562 L 215.191406 189.34375 C 216.066406 188.683594 217.125 188.320312 218.222656 188.332031 L 227.003906 188.332031 C 228.148438 188.332031 229.066406 187.414062 229.066406 186.273438 L 229.066406 177.949219 C 229.066406 176.808594 228.148438 175.890625 227.003906 175.890625 L 218.660156 175.890625 C 217.515625 175.890625 216.59375 176.808594 216.59375 177.949219 C 216.59375 177.949219 216.605469 180.949219 216.617188 183.441406 C 216.628906 185.546875 215.652344 187.519531 213.988281 188.800781 L 209.78125 192.023438 C 209.132812 192.519531 207.929688 192.917969 207.117188 192.917969 L 194.90625 192.917969 C 193.761719 192.917969 192.839844 193.835938 192.839844 194.976562 L 192.839844 207.15625 C 192.839844 208.296875 193.761719 209.214844 194.90625 209.214844 L 207.117188 209.214844 C 207.175781 209.214844 207.234375 209.214844 207.292969 209.203125 C 208.121094 209.132812 208.933594 209.496094 209.441406 210.144531 L 211.375 212.578125 C 211.703125 213 211.761719 213.554688 211.609375 214.070312 C 211.5625 214.246094 211.527344 214.4375 211.527344 214.625 L 211.527344 219.5625 C 211.527344 220.703125 212.445312 221.621094 213.589844 221.621094 L 218.539062 221.621094 C 219.683594 221.632812 220.605469 220.714844 220.605469 219.574219 Z M 220.605469 219.574219 " fill-opacity="1" fill-rule="nonzero"/></g><path fill="#5271ff" d="M 226.039062 201.066406 C 226.039062 201.585938 225.9375 202.082031 225.738281 202.558594 C 225.542969 203.039062 225.257812 203.460938 224.890625 203.828125 C 224.523438 204.191406 224.101562 204.476562 223.621094 204.671875 C 223.140625 204.871094 222.644531 204.96875 222.125 204.96875 C 221.605469 204.96875 221.105469 204.871094 220.625 204.671875 C 220.148438 204.476562 219.722656 204.191406 219.355469 203.828125 C 218.988281 203.460938 218.707031 203.039062 218.507812 202.558594 C 218.308594 202.082031 218.210938 201.585938 218.210938 201.066406 C 218.210938 200.546875 218.308594 200.050781 218.507812 199.574219 C 218.707031 199.09375 218.988281 198.671875 219.355469 198.304688 C 219.722656 197.941406 220.148438 197.65625 220.625 197.460938 C 221.105469 197.261719 221.605469 197.164062 222.125 197.164062 C 222.644531 197.164062 223.140625 197.261719 223.621094 197.460938 C 224.101562 197.65625 224.523438 197.941406 224.890625 198.304688 C 225.257812 198.671875 225.542969 199.09375 225.738281 199.574219 C 225.9375 200.050781 226.039062 200.546875 226.039062 201.066406 Z M 226.039062 201.066406 " fill-opacity="1" fill-rule="nonzero"/><g clip-path="url(#b6966735d2)"><path fill="#6063ac" d="M 154.421875 220.515625 L 159.375 220.515625 C 160.519531 220.515625 161.4375 219.597656 161.4375 218.457031 L 161.4375 213.507812 C 161.4375 212.894531 161.71875 212.320312 162.191406 211.941406 L 165.105469 209.636719 C 165.597656 209.25 166.222656 209.097656 166.859375 209.097656 C 166.859375 209.097656 166.871094 209.097656 166.871094 209.097656 L 179.097656 209.097656 C 179.734375 209.097656 180.324219 209.390625 180.710938 209.886719 L 184.730469 215.117188 C 185.390625 215.988281 185.757812 217.046875 185.746094 218.140625 L 185.746094 226.898438 C 185.746094 228.039062 186.664062 228.957031 187.808594 228.957031 L 196.152344 228.957031 C 197.296875 228.957031 198.21875 228.039062 198.21875 226.898438 L 198.21875 218.574219 C 198.21875 217.433594 197.296875 216.515625 196.152344 216.515625 C 196.152344 216.515625 193.148438 216.527344 190.648438 216.539062 C 188.539062 216.550781 186.558594 215.578125 185.273438 213.917969 L 182.042969 209.722656 C 181.546875 209.074219 181.148438 207.875 181.148438 207.0625 L 181.148438 194.882812 C 181.148438 193.742188 180.226562 192.824219 179.085938 192.824219 L 166.871094 192.824219 C 165.726562 192.824219 164.808594 193.742188 164.808594 194.882812 L 164.808594 207.0625 C 164.808594 207.121094 164.808594 207.179688 164.820312 207.238281 C 164.890625 208.0625 164.527344 208.875 163.878906 209.378906 L 161.4375 211.308594 C 161.011719 211.636719 160.457031 211.695312 159.941406 211.542969 C 159.761719 211.496094 159.574219 211.460938 159.386719 211.460938 L 154.433594 211.460938 C 153.292969 211.460938 152.371094 212.378906 152.371094 213.519531 L 152.371094 218.457031 C 152.359375 219.597656 153.292969 220.515625 154.421875 220.515625 Z M 154.421875 220.515625 " fill-opacity="1" fill-rule="nonzero"/></g><path fill="#6063ac" d="M 176.890625 222.03125 C 176.890625 222.550781 176.792969 223.046875 176.59375 223.527344 C 176.394531 224.003906 176.113281 224.425781 175.746094 224.792969 C 175.378906 225.160156 174.957031 225.441406 174.476562 225.640625 C 173.996094 225.835938 173.496094 225.9375 172.976562 225.9375 C 172.460938 225.9375 171.960938 225.835938 171.480469 225.640625 C 171 225.441406 170.578125 225.160156 170.210938 224.792969 C 169.84375 224.425781 169.5625 224.003906 169.363281 223.527344 C 169.164062 223.046875 169.0625 222.550781 169.0625 222.03125 C 169.0625 221.515625 169.164062 221.015625 169.363281 220.539062 C 169.5625 220.058594 169.84375 219.636719 170.210938 219.273438 C 170.578125 218.90625 171 218.625 171.480469 218.425781 C 171.960938 218.226562 172.460938 218.128906 172.976562 218.128906 C 173.496094 218.128906 173.996094 218.226562 174.476562 218.425781 C 174.957031 218.625 175.378906 218.90625 175.746094 219.273438 C 176.113281 219.636719 176.394531 220.058594 176.59375 220.539062 C 176.792969 221.015625 176.890625 221.515625 176.890625 222.03125 Z M 176.890625 222.03125 " fill-opacity="1" fill-rule="nonzero"/><g clip-path="url(#7624b29f39)"><path fill="#7a7bba" d="M 154.28125 155.089844 L 154.28125 160.027344 C 154.28125 161.167969 155.203125 162.085938 156.34375 162.085938 L 161.308594 162.085938 C 161.921875 162.085938 162.5 162.367188 162.875 162.839844 L 165.1875 165.742188 C 165.574219 166.238281 165.726562 166.859375 165.726562 167.496094 C 165.726562 167.496094 165.726562 167.507812 165.726562 167.507812 L 165.726562 179.699219 C 165.726562 180.335938 165.433594 180.921875 164.9375 181.3125 L 159.691406 185.320312 C 158.820312 185.980469 157.757812 186.34375 156.664062 186.332031 L 147.878906 186.332031 C 146.738281 186.332031 145.816406 187.25 145.816406 188.390625 L 145.816406 196.714844 C 145.816406 197.855469 146.738281 198.773438 147.878906 198.773438 L 156.214844 198.773438 C 157.359375 198.773438 158.277344 197.855469 158.277344 196.714844 C 158.277344 196.714844 158.265625 193.71875 158.253906 191.222656 C 158.242188 189.121094 159.222656 187.144531 160.882812 185.863281 L 165.089844 182.640625 C 165.738281 182.148438 166.941406 181.746094 167.757812 181.746094 L 179.980469 181.746094 C 181.125 181.746094 182.042969 180.828125 182.042969 179.6875 L 182.042969 167.507812 C 182.042969 166.367188 181.125 165.449219 179.980469 165.449219 L 167.769531 165.449219 C 167.707031 165.449219 167.648438 165.449219 167.589844 165.460938 C 166.765625 165.53125 165.953125 165.167969 165.445312 164.519531 L 163.511719 162.085938 C 163.183594 161.664062 163.125 161.109375 163.277344 160.59375 C 163.324219 160.417969 163.359375 160.226562 163.359375 160.039062 L 163.359375 155.101562 C 163.359375 153.960938 162.4375 153.042969 161.296875 153.042969 L 156.34375 153.042969 C 155.203125 153.03125 154.28125 153.960938 154.28125 155.089844 Z M 154.28125 155.089844 " fill-opacity="1" fill-rule="nonzero"/></g><path fill="#7a7bba" d="M 156.675781 173.597656 C 156.675781 174.117188 156.574219 174.613281 156.375 175.09375 C 156.179688 175.570312 155.894531 175.992188 155.527344 176.359375 C 155.160156 176.726562 154.738281 177.007812 154.257812 177.203125 C 153.777344 177.402344 153.28125 177.503906 152.761719 177.503906 C 152.242188 177.503906 151.742188 177.402344 151.261719 177.203125 C 150.785156 177.007812 150.359375 176.726562 149.992188 176.359375 C 149.625 175.992188 149.34375 175.570312 149.144531 175.09375 C 148.945312 174.613281 148.847656 174.117188 148.847656 173.597656 C 148.847656 173.082031 148.945312 172.582031 149.144531 172.105469 C 149.34375 171.625 149.625 171.203125 149.992188 170.835938 C 150.359375 170.472656 150.785156 170.191406 151.261719 169.992188 C 151.742188 169.792969 152.242188 169.695312 152.761719 169.695312 C 153.28125 169.695312 153.777344 169.792969 154.257812 169.992188 C 154.738281 170.191406 155.160156 170.472656 155.527344 170.835938 C 155.894531 171.203125 156.179688 171.625 156.375 172.105469 C 156.574219 172.582031 156.675781 173.082031 156.675781 173.597656 Z M 156.675781 173.597656 " fill-opacity="1" fill-rule="nonzero"/></svg>