<svg width="512" height="512" xmlns="http://www.w3.org/2000/svg" xmlns:xlink="http://www.w3.org/1999/xlink" xml:space="preserve" overflow="hidden"><g transform="translate(-356 -76)"><path d="M743.963 273.442 748.765 269.71 749.419 270.551 744.617 274.283Z" fill="#0070C0"/><path d="M759.197 278.271 761.139 269.273 762.18 269.497 760.239 278.496Z" fill="#0070C0"/><path d="M756.587 220.732 757.576 220.336 760.776 228.337 759.787 228.732Z" fill="#0070C0"/><path d="M751.662 209.075 754.863 203.739C754.614 203.461 754.372 203.178 754.121 202.902L750.747 208.526 751.662 209.075Z" fill="#0070C0"/><path d="M755.462 263.719 755.997 255.185 757.061 255.252 756.527 263.785Z" fill="#0070C0"/><path d="M755.065 245.766 759.862 240.429 760.656 241.143 755.859 246.479Z" fill="#0070C0"/><path d="M779.549 260.321 780.417 259.701 785.75 267.167 784.882 267.787Z" fill="#0070C0"/><path d="M771.496 246.202 772.55 246.039 773.617 252.972 772.563 253.135Z" fill="#0070C0"/><path d="M776.382 242.388 781.279 241.339C781.104 241.013 780.936 240.684 780.758 240.359L776.159 241.345 776.382 242.388Z" fill="#0070C0"/><path d="M783.808 252.785 784.907 248.437C784.669 247.946 784.419 247.46 784.177 246.971L782.774 252.524 783.808 252.785Z" fill="#0070C0"/><path d="M743.096 237.047 743.305 236.001 751.306 237.601 751.096 238.647Z" fill="#0070C0"/><path d="M746.084 307.55 751.95 303.283 752.578 304.146 746.711 308.413Z" fill="#0070C0"/><path d="M743.947 427.079 748.748 423.346 749.402 424.187 744.602 427.92Z" fill="#0070C0"/><path d="M795.74 309.759 796.636 309.181 800.166 314.65 799.269 315.228Z" fill="#0070C0"/><path d="M759.198 431.865 761.139 422.867 762.181 423.092 760.239 432.09Z" fill="#0070C0"/><path d="M755.244 292.505 755.664 291.524 763.13 294.724 762.71 295.705Z" fill="#0070C0"/><path d="M749.06 325.027 749.597 318.094 750.659 318.176 750.122 325.109Z" fill="#0070C0"/><path d="M756.588 374.335 757.577 373.939 760.778 381.94 759.788 382.335Z" fill="#0070C0"/><path d="M750.729 362.116 755.529 354.118 756.444 354.667 751.643 362.665Z" fill="#0070C0"/><path d="M798.001 296.091 800.171 293.68C800.083 293.248 799.989 292.818 799.899 292.386L797.208 295.377 798.001 296.091Z" fill="#0070C0"/><path d="M779.471 290.933 780.538 290.933 780.538 297.333 779.471 297.333Z" fill="#0070C0"/><path d="M766.59 302.115 773.523 301.046 773.685 302.101 766.753 303.17Z" fill="#0070C0"/><path d="M782.166 311.27 783.22 311.107 784.287 318.04 783.233 318.203Z" fill="#0070C0"/><path d="M784.684 301.092 792.151 299.492 792.375 300.535 784.908 302.135Z" fill="#0070C0"/><path d="M759.417 326.215 765.284 321.948 765.911 322.811 760.044 327.078Z" fill="#0070C0"/><path d="M755.496 417.289 756.029 408.755 757.094 408.822 756.561 417.356Z" fill="#0070C0"/><path d="M755.068 399.36 759.865 394.024 760.659 394.738 755.862 400.074Z" fill="#0070C0"/><path d="M779.57 413.91 783.201 418.994C783.383 418.635 783.558 418.272 783.739 417.911L780.438 413.291 779.57 413.91Z" fill="#0070C0"/><path d="M797.832 344.897 798.444 345.771 803.739 342.064C803.74 342.038 803.742 342.014 803.743 341.988L803.165 341.163 797.832 344.897Z" fill="#0070C0"/><path d="M788.965 365.044 789.174 363.998 797.174 365.598 796.965 366.644Z" fill="#0070C0"/><path d="M787.172 372.996 787.784 372.121 793.117 375.855 792.505 376.729Z" fill="#0070C0"/><path d="M797.604 325.067 803.862 325.067C803.85 324.711 803.837 324.355 803.822 324L797.604 324 797.604 325.067Z" fill="#0070C0"/><path d="M771.154 355.368 771.767 354.494 777.098 358.23 776.485 359.104Z" fill="#0070C0"/><path d="M765.604 365.6 772.004 365.6 772.004 366.667 765.604 366.667Z" fill="#0070C0"/><path d="M772.274 381.685 778.141 377.952 778.714 378.852 772.847 382.585Z" fill="#0070C0"/><path d="M781.755 344.414 781.799 343.348 788.303 343.619 788.259 344.684Z" fill="#0070C0"/><path d="M783.623 331.83 784.271 330.983 789.354 334.867 788.707 335.715Z" fill="#0070C0"/><path d="M771.503 399.806 772.557 399.644 773.624 406.577 772.57 406.739Z" fill="#0070C0"/><path d="M776.148 394.958 783.615 393.358 783.839 394.401 776.372 396.001Z" fill="#0070C0"/><path d="M760.979 309.992 761.668 309.177 768.602 315.043 767.913 315.858Z" fill="#0070C0"/><path d="M744.495 347.007 749.828 343.273 750.441 344.148 745.108 347.881Z" fill="#0070C0"/><path d="M768.999 334.787 773.267 331.588 773.906 332.442 769.639 335.641Z" fill="#0070C0"/><path d="M782.76 406.146 784.275 400.159 785.308 400.421 783.793 406.408Z" fill="#0070C0"/><path d="M743.099 390.644 743.308 389.598 751.309 391.198 751.1 392.244Z" fill="#0070C0"/><path d="M790.638 357.499 792.099 351.549 793.134 351.804 791.674 357.753Z" fill="#0070C0"/><path d="M773.559 281.316 776.387 277.154 777.269 277.753 774.44 281.915Z" fill="#0070C0"/><path d="M746.433 279.827 747.3 279.204 750.849 284.142 749.982 284.765Z" fill="#0070C0"/><path d="M746.1 461.144 751.967 456.878 752.595 457.74 746.727 462.007Z" fill="#0070C0"/><path d="M755.237 446.102 755.657 445.122 763.124 448.322 762.703 449.302Z" fill="#0070C0"/><path d="M746.45 433.393 747.317 432.77 750.867 437.707 750 438.33Z" fill="#0070C0"/><path d="M592.49 153.957 598.357 149.69 598.984 150.553 593.117 154.819Z" fill="#0070C0"/><path d="M590.357 273.447 595.159 269.715 595.813 270.556 591.011 274.288Z" fill="#0070C0"/><path d="M732.798 191.105 733.371 190.205 739.238 193.938 738.665 194.838Z" fill="#0070C0"/><path d="M739.151 214.774 743.418 211.574 744.058 212.427 739.791 215.627Z" fill="#0070C0"/><path d="M732.192 233.191 732.867 232.366 738.734 237.165 738.059 237.991Z" fill="#0070C0"/><path d="M733.52 259.989 733.706 258.939 742.772 260.539 742.587 261.589Z" fill="#0070C0"/><path d="M716.753 260.67 721.554 256.937 722.208 257.778 717.407 261.511Z" fill="#0070C0"/><path d="M733.071 222.667 739.471 222.667 739.471 223.733 733.071 223.733Z" fill="#0070C0"/><path d="M642.149 156.159 643.046 155.581 646.575 161.05 645.678 161.628Z" fill="#0070C0"/><path d="M703.515 223.851 704.4 223.257 708.44 229.28 707.555 229.874Z" fill="#0070C0"/><path d="M686.216 163.749 687.112 163.171 690.641 168.641 689.745 169.219Z" fill="#0070C0"/><path d="M672.45 276.889 676.405 271.168 677.282 271.774 673.328 277.495Z" fill="#0070C0"/><path d="M693.346 213.851 698.361 208.169 699.161 208.875 694.145 214.557Z" fill="#0070C0"/><path d="M605.612 278.261 607.555 269.263 608.597 269.488 606.653 278.486Z" fill="#0070C0"/><path d="M643.564 276.594 643.809 270.198 644.876 270.239 644.63 276.635Z" fill="#0070C0"/><path d="M609.548 141.11 607.102 140.062C606.269 140.083 605.441 140.124 604.611 140.155L609.128 142.091 609.548 141.11Z" fill="#0070C0"/><path d="M595.465 171.428 596.002 164.495 597.064 164.578 596.528 171.51Z" fill="#0070C0"/><path d="M602.983 220.733 603.972 220.338 607.173 228.338 606.183 228.734Z" fill="#0070C0"/><path d="M597.148 208.525 601.948 200.525 602.863 201.074 598.063 209.074Z" fill="#0070C0"/><path d="M626.938 143.733 626.938 140.574C626.582 140.546 626.226 140.527 625.871 140.502L625.871 143.733 626.938 143.733Z" fill="#0070C0"/><path d="M612.987 148.527 619.919 147.458 620.082 148.512 613.15 149.581Z" fill="#0070C0"/><path d="M628.555 157.672 629.609 157.51 630.676 164.443 629.622 164.605Z" fill="#0070C0"/><path d="M631.094 147.467 638.561 145.87 638.784 146.914 631.317 148.51Z" fill="#0070C0"/><path d="M605.823 172.623 611.691 168.357 612.318 169.219 606.451 173.486Z" fill="#0070C0"/><path d="M601.863 263.711 602.397 255.178 603.462 255.245 602.927 263.778Z" fill="#0070C0"/><path d="M601.471 245.768 606.267 240.431 607.061 241.145 602.265 246.481Z" fill="#0070C0"/><path d="M625.954 260.314 626.822 259.694 632.155 267.16 631.287 267.78Z" fill="#0070C0"/><path d="M644.226 191.283 649.559 187.549 650.171 188.424 644.839 192.157Z" fill="#0070C0"/><path d="M703.484 196.488 703.995 195.551 709.862 198.75 709.352 199.686Z" fill="#0070C0"/><path d="M635.364 211.449 635.573 210.403 643.574 212.003 643.365 213.049Z" fill="#0070C0"/><path d="M649.018 235.574 653.285 232.374 653.925 233.227 649.658 236.427Z" fill="#0070C0"/><path d="M642.063 253.994 642.738 253.168 648.605 257.968 647.93 258.793Z" fill="#0070C0"/><path d="M650.656 265.253 651.22 264.349 655.487 267.016 654.922 267.919Z" fill="#0070C0"/><path d="M642.938 243.467 649.338 243.467 649.338 244.533 642.938 244.533Z" fill="#0070C0"/><path d="M665.56 171.037 670.891 167.301 671.504 168.176 666.173 171.912Z" fill="#0070C0"/><path d="M670.671 178.4 677.071 178.4 677.071 179.467 670.671 179.467Z" fill="#0070C0"/><path d="M663.997 191.642 664.569 190.742 670.436 194.475 669.863 195.375Z" fill="#0070C0"/><path d="M666.409 223.048 668.008 217.715 669.029 218.021 667.429 223.354Z" fill="#0070C0"/><path d="M663.404 233.77 664.078 232.944 669.948 237.741 669.272 238.567Z" fill="#0070C0"/><path d="M666.122 252.986 666.687 252.082 670.954 254.749 670.389 255.653Z" fill="#0070C0"/><path d="M714.346 221.638 720.746 221.638 720.746 222.705 714.346 222.705Z" fill="#0070C0"/><path d="M633.571 219.385 634.183 218.51 639.516 222.244 638.904 223.119Z" fill="#0070C0"/><path d="M644.004 170.4 650.404 170.4 650.404 171.467 644.004 171.467Z" fill="#0070C0"/><path d="M617.571 201.783 618.183 200.909 623.516 204.642 622.904 205.517Z" fill="#0070C0"/><path d="M612.004 212 618.404 212 618.404 213.067 612.004 213.067Z" fill="#0070C0"/><path d="M618.664 228.083 624.531 224.349 625.104 225.249 619.237 228.983Z" fill="#0070C0"/><path d="M686.902 197.154 691.992 193.828 692.575 194.721 687.486 198.047Z" fill="#0070C0"/><path d="M687.612 181.964 688.259 181.117 693.343 185.002 692.695 185.85Z" fill="#0070C0"/><path d="M702.142 179.436 702.614 173.002 703.679 173.08 703.207 179.514Z" fill="#0070C0"/><path d="M683.091 267.61 683.136 266.544 689.64 266.815 689.595 267.881Z" fill="#0070C0"/><path d="M684.951 255.029 685.598 254.182 690.682 258.066 690.034 258.914Z" fill="#0070C0"/><path d="M699.997 246.286 700.999 245.918 703.395 252.445 702.392 252.813Z" fill="#0070C0"/><path d="M683.692 223.304 689.023 219.568 689.636 220.442 684.305 224.178Z" fill="#0070C0"/><path d="M681.722 234.372 682.036 233.351 688.97 235.485 688.656 236.506Z" fill="#0070C0"/><path d="M701.867 265.775 702.44 264.875 708.307 268.609 707.734 269.509Z" fill="#0070C0"/><path d="M717.865 211.373 718.438 210.473 724.305 214.206 723.732 215.106Z" fill="#0070C0"/><path d="M714.604 240.92 718.872 237.722 719.511 238.575 715.244 241.774Z" fill="#0070C0"/><path d="M628.161 190.808 628.205 189.743 634.709 190.013 634.665 191.079Z" fill="#0070C0"/><path d="M630.01 178.231 630.657 177.384 635.741 181.269 635.093 182.117Z" fill="#0070C0"/><path d="M709.507 188.536 709.715 187.49 715.519 188.647 715.31 189.693Z" fill="#0070C0"/><path d="M617.892 246.208 618.946 246.046 620.013 252.979 618.959 253.141Z" fill="#0070C0"/><path d="M622.553 241.354 630.02 239.754 630.243 240.797 622.777 242.397Z" fill="#0070C0"/><path d="M656.178 154.917 656.375 153.87 664.908 155.47 664.711 156.517Z" fill="#0070C0"/><path d="M657.28 198.764 658.336 198.613 659.404 206.079 658.348 206.23Z" fill="#0070C0"/><path d="M718.432 174.078 723.765 176.745 724.084 176.108C723.462 175.66 722.837 175.215 722.209 174.774L718.909 173.124 718.432 174.078Z" fill="#0070C0"/><path d="M607.383 156.4 608.073 155.585 615.007 161.452 614.317 162.267Z" fill="#0070C0"/><path d="M590.895 193.418 596.228 189.684 596.84 190.559 591.507 194.292Z" fill="#0070C0"/><path d="M615.409 181.184 619.676 177.985 620.316 178.838 616.049 182.037Z" fill="#0070C0"/><path d="M723.651 201.69 727.606 195.969 728.483 196.575 724.529 202.296Z" fill="#0070C0"/><path d="M657.97 183.206 659.485 177.219 660.518 177.48 659.003 183.467Z" fill="#0070C0"/><path d="M629.162 252.534 630.675 246.546 631.708 246.807 630.195 252.794Z" fill="#0070C0"/><path d="M649.551 221.174 653.818 217.974 654.458 218.827 650.191 222.027Z" fill="#0070C0"/><path d="M589.499 237.05 589.708 236.004 597.708 237.604 597.499 238.65Z" fill="#0070C0"/><path d="M727.767 243.814 728.653 243.219 732.697 249.24 731.812 249.835Z" fill="#0070C0"/><path d="M637.032 203.902 638.493 197.953 639.529 198.207 638.068 204.156Z" fill="#0070C0"/><path d="M677.273 208.918 681.54 205.719 682.18 206.573 677.913 209.772Z" fill="#0070C0"/><path d="M592.489 307.554 598.356 303.287 598.983 304.15 593.117 308.417Z" fill="#0070C0"/><path d="M590.362 427.053 595.164 423.321 595.818 424.162 591.016 427.894Z" fill="#0070C0"/><path d="M735.639 296.812 742.573 295.214 742.813 296.254 735.878 297.852Z" fill="#0070C0"/><path d="M734.362 324.075 739.694 320.341 740.307 321.216 734.974 324.95Z" fill="#0070C0"/><path d="M739.471 331.467 745.871 331.467 745.871 332.533 739.471 332.533Z" fill="#0070C0"/><path d="M732.804 344.709 733.377 343.809 739.244 347.542 738.671 348.442Z" fill="#0070C0"/><path d="M739.132 368.386 743.399 365.187 744.039 366.04 739.771 369.239Z" fill="#0070C0"/><path d="M732.199 386.846 732.874 386.02 738.743 390.816 738.068 391.642Z" fill="#0070C0"/><path d="M733.523 413.591 733.708 412.54 742.775 414.14 742.589 415.191Z" fill="#0070C0"/><path d="M716.747 414.278 721.547 410.545 722.201 411.386 717.401 415.119Z" fill="#0070C0"/><path d="M733.071 376.267 739.471 376.267 739.471 377.333 733.071 377.333Z" fill="#0070C0"/><path d="M705.653 312.38 706.537 311.787 710.577 317.81 709.692 318.403Z" fill="#0070C0"/><path d="M642.145 309.755 643.041 309.177 646.57 314.645 645.674 315.224Z" fill="#0070C0"/><path d="M677.785 305.162 681.74 299.441 682.617 300.047 678.663 305.768Z" fill="#0070C0"/><path d="M703.523 377.443 704.408 376.85 708.447 382.873 707.562 383.466Z" fill="#0070C0"/><path d="M686.218 317.345 687.115 316.767 690.644 322.237 689.747 322.815Z" fill="#0070C0"/><path d="M672.448 430.488 676.403 424.767 677.28 425.374 673.326 431.095Z" fill="#0070C0"/><path d="M693.348 367.459 698.364 361.778 699.164 362.484 694.148 368.165Z" fill="#0070C0"/><path d="M605.603 431.865 607.545 422.867 608.586 423.092 606.645 432.09Z" fill="#0070C0"/><path d="M643.569 430.193 643.815 423.796 644.882 423.837 644.636 430.234Z" fill="#0070C0"/><path d="M601.647 292.498 602.067 291.517 609.533 294.717 609.113 295.698Z" fill="#0070C0"/><path d="M595.485 325.017 596.018 318.084 597.081 318.166 596.547 325.099Z" fill="#0070C0"/><path d="M602.984 374.337 603.974 373.941 607.174 381.941 606.185 382.337Z" fill="#0070C0"/><path d="M597.149 362.125 601.949 354.125 602.864 354.674 598.064 362.674Z" fill="#0070C0"/><path d="M643.603 295.366 648.4 290.029 649.194 290.743 644.397 296.079Z" fill="#0070C0"/><path d="M657.516 290.795 658.206 289.979 665.14 295.846 664.45 296.661Z" fill="#0070C0"/><path d="M693.334 290.841 693.893 289.933 700.827 294.199 700.268 295.108Z" fill="#0070C0"/><path d="M693.693 309.84 697.96 302.906 698.869 303.466 694.602 310.399Z" fill="#0070C0"/><path d="M713.119 300.03 723.785 295.229 724.223 296.202 713.556 301.002Z" fill="#0070C0"/><path d="M723.69 311.304 729.021 307.568 729.633 308.442 724.303 312.178Z" fill="#0070C0"/><path d="M625.871 290.933 626.938 290.933 626.938 297.333 625.871 297.333Z" fill="#0070C0"/><path d="M613.007 302.136 619.94 301.069 620.102 302.123 613.169 303.19Z" fill="#0070C0"/><path d="M628.547 311.262 629.601 311.099 630.67 318.032 629.616 318.194Z" fill="#0070C0"/><path d="M631.085 301.087 638.552 299.487 638.775 300.53 631.308 302.13Z" fill="#0070C0"/><path d="M605.823 326.22 611.689 321.953 612.317 322.816 606.45 327.083Z" fill="#0070C0"/><path d="M601.893 417.296 602.426 408.762 603.491 408.828 602.957 417.362Z" fill="#0070C0"/><path d="M601.474 399.363 606.271 394.027 607.065 394.741 602.268 400.077Z" fill="#0070C0"/><path d="M625.948 413.91 626.816 413.29 632.148 420.756 631.28 421.376Z" fill="#0070C0"/><path d="M644.232 344.877 649.565 341.144 650.177 342.018 644.844 345.752Z" fill="#0070C0"/><path d="M703.5 350.08 704.011 349.144 709.878 352.344 709.367 353.28Z" fill="#0070C0"/><path d="M635.367 365.047 635.576 364.001 643.577 365.601 643.368 366.647Z" fill="#0070C0"/><path d="M648.999 389.181 653.266 385.982 653.906 386.836 649.639 390.035Z" fill="#0070C0"/><path d="M642.069 407.588 642.745 406.763 648.611 411.562 647.936 412.388Z" fill="#0070C0"/><path d="M650.656 418.853 651.22 417.949 655.487 420.616 654.922 421.519Z" fill="#0070C0"/><path d="M642.938 397.067 649.338 397.067 649.338 398.133 642.938 398.133Z" fill="#0070C0"/><path d="M665.564 324.611 670.897 320.877 671.509 321.752 666.176 325.485Z" fill="#0070C0"/><path d="M670.671 332 677.071 332 677.071 333.067 670.671 333.067Z" fill="#0070C0"/><path d="M664.003 345.245 664.575 344.345 670.442 348.079 669.869 348.979Z" fill="#0070C0"/><path d="M666.405 376.641 668.004 371.308 669.025 371.614 667.425 376.947Z" fill="#0070C0"/><path d="M663.401 387.322 664.077 386.496 669.944 391.296 669.268 392.121Z" fill="#0070C0"/><path d="M666.122 406.586 666.687 405.682 670.954 408.349 670.389 409.253Z" fill="#0070C0"/><path d="M714.346 375.238 720.746 375.238 720.746 376.305 714.346 376.305Z" fill="#0070C0"/><path d="M633.567 372.991 634.179 372.116 639.512 375.849 638.9 376.724Z" fill="#0070C0"/><path d="M644.004 324 650.404 324 650.404 325.067 644.004 325.067Z" fill="#0070C0"/><path d="M617.566 355.39 618.179 354.515 623.512 358.248 622.899 359.123Z" fill="#0070C0"/><path d="M612.004 365.6 618.404 365.6 618.404 366.667 612.004 366.667Z" fill="#0070C0"/><path d="M618.668 381.689 624.535 377.956 625.108 378.855 619.241 382.589Z" fill="#0070C0"/><path d="M686.934 350.751 692.022 347.422 692.606 348.314 687.518 351.644Z" fill="#0070C0"/><path d="M687.612 335.569 688.26 334.721 693.343 338.607 692.695 339.454Z" fill="#0070C0"/><path d="M702.13 333.014 702.605 326.58 703.67 326.659 703.195 333.093Z" fill="#0070C0"/><path d="M683.086 421.209 683.13 420.144 689.634 420.414 689.59 421.48Z" fill="#0070C0"/><path d="M684.946 408.638 685.594 407.79 690.677 411.676 690.029 412.523Z" fill="#0070C0"/><path d="M700 399.892 701.002 399.524 703.398 406.051 702.395 406.419Z" fill="#0070C0"/><path d="M683.689 376.902 689.02 373.166 689.633 374.041 684.302 377.777Z" fill="#0070C0"/><path d="M681.725 387.975 682.039 386.954 688.973 389.088 688.659 390.108Z" fill="#0070C0"/><path d="M701.873 419.379 702.445 418.479 708.312 422.212 707.739 423.112Z" fill="#0070C0"/><path d="M717.871 364.977 718.444 364.077 724.311 367.81 723.738 368.71Z" fill="#0070C0"/><path d="M714.597 394.518 718.865 391.319 719.504 392.172 715.237 395.371Z" fill="#0070C0"/><path d="M628.155 344.408 628.2 343.342 634.704 343.613 634.659 344.678Z" fill="#0070C0"/><path d="M630.017 331.834 630.664 330.986 635.748 334.871 635.101 335.719Z" fill="#0070C0"/><path d="M709.502 342.141 709.711 341.095 715.514 342.251 715.306 343.298Z" fill="#0070C0"/><path d="M617.885 399.793 618.939 399.631 620.008 406.563 618.954 406.726Z" fill="#0070C0"/><path d="M622.57 394.934 630.037 393.337 630.26 394.38 622.793 395.977Z" fill="#0070C0"/><path d="M656.183 308.519 656.379 307.471 664.912 309.071 664.716 310.119Z" fill="#0070C0"/><path d="M657.286 352.359 658.342 352.208 659.41 359.674 658.354 359.826Z" fill="#0070C0"/><path d="M718.42 327.684 718.897 326.729 724.23 329.396 723.753 330.35Z" fill="#0070C0"/><path d="M607.385 309.995 608.075 309.18 615.009 315.046 614.319 315.861Z" fill="#0070C0"/><path d="M590.891 347.034 596.222 343.298 596.834 344.172 591.503 347.908Z" fill="#0070C0"/><path d="M615.402 334.781 619.669 331.582 620.309 332.435 616.042 335.634Z" fill="#0070C0"/><path d="M674.05 290.755 678.004 285.034 678.882 285.641 674.927 291.362Z" fill="#0070C0"/><path d="M723.649 355.289 727.604 349.568 728.481 350.175 724.526 355.896Z" fill="#0070C0"/><path d="M657.963 336.807 659.478 330.82 660.51 331.081 658.996 337.068Z" fill="#0070C0"/><path d="M629.155 406.131 630.668 400.143 631.701 400.404 630.188 406.392Z" fill="#0070C0"/><path d="M649.551 374.774 653.817 371.574 654.457 372.427 650.191 375.627Z" fill="#0070C0"/><path d="M589.501 390.647 589.71 389.601 597.711 391.201 597.502 392.247Z" fill="#0070C0"/><path d="M727.776 397.418 728.662 396.824 732.704 402.847 731.818 403.441Z" fill="#0070C0"/><path d="M637.037 357.504 638.498 351.554 639.534 351.809 638.073 357.758Z" fill="#0070C0"/><path d="M677.285 362.507 681.551 359.307 682.191 360.16 677.925 363.36Z" fill="#0070C0"/><path d="M730.913 282.427 733.286 276.111 734.284 276.486 731.91 282.802Z" fill="#0070C0"/><path d="M719.232 276.006 720.28 275.806 721.614 282.797 720.567 282.997Z" fill="#0070C0"/><path d="M688.084 284.684 688.33 278.289 689.397 278.33 689.151 284.725Z" fill="#0070C0"/><path d="M651.642 277.222 652.519 276.614 655.557 280.998 654.68 281.605Z" fill="#0070C0"/><path d="M619.963 281.307 622.792 277.146 623.673 277.745 620.844 281.906Z" fill="#0070C0"/><path d="M592.836 279.821 593.703 279.198 597.251 284.136 596.385 284.759Z" fill="#0070C0"/><path d="M704.313 284.791 708.579 278.391 709.467 278.983 705.2 285.383Z" fill="#0070C0"/><path d="M592.503 461.151 598.37 456.884 598.998 457.747 593.13 462.013Z" fill="#0070C0"/><path d="M735.643 450.419 742.577 448.821 742.817 449.86 735.882 451.458Z" fill="#0070C0"/><path d="M734.365 477.697 734.977 478.571 740.213 474.905C740.243 474.878 740.273 474.852 740.302 474.826L739.697 473.963 734.365 477.697Z" fill="#0070C0"/><path d="M705.656 465.993 706.541 465.4 710.578 471.424 709.693 472.017Z" fill="#0070C0"/><path d="M642.14 463.35 643.037 462.772 646.566 468.241 645.669 468.819Z" fill="#0070C0"/><path d="M677.781 458.756 681.735 453.035 682.612 453.641 678.658 459.362Z" fill="#0070C0"/><path d="M686.221 470.941 687.117 470.363 690.646 475.833 689.75 476.411Z" fill="#0070C0"/><path d="M601.639 446.095 602.06 445.115 609.526 448.315 609.106 449.295Z" fill="#0070C0"/><path d="M595.461 478.621 595.998 471.689 597.06 471.771 596.523 478.704Z" fill="#0070C0"/><path d="M597.134 515.71 601.935 507.711 602.849 508.26 598.048 516.259Z" fill="#0070C0"/><path d="M643.62 448.988 648.421 443.655 649.214 444.369 644.414 449.702Z" fill="#0070C0"/><path d="M657.518 444.388 658.208 443.573 665.141 449.439 664.452 450.254Z" fill="#0070C0"/><path d="M693.341 444.441 693.9 443.532 700.833 447.799 700.274 448.707Z" fill="#0070C0"/><path d="M693.696 463.462 697.965 456.53 698.873 457.089 694.604 464.021Z" fill="#0070C0"/><path d="M713.124 453.626 723.791 448.826 724.228 449.798 713.562 454.599Z" fill="#0070C0"/><path d="M723.686 464.902 729.017 461.166 729.63 462.041 724.299 465.777Z" fill="#0070C0"/><path d="M625.871 444.533 626.938 444.533 626.938 450.933 625.871 450.933Z" fill="#0070C0"/><path d="M613.002 455.719 619.934 454.65 620.097 455.704 613.165 456.773Z" fill="#0070C0"/><path d="M628.555 464.858 629.609 464.695 630.678 471.628 629.624 471.79Z" fill="#0070C0"/><path d="M631.106 454.667 638.573 453.07 638.796 454.113 631.329 455.71Z" fill="#0070C0"/><path d="M605.827 479.815 611.693 475.548 612.321 476.41 606.454 480.677Z" fill="#0070C0"/><path d="M644.219 498.5 649.55 494.764 650.163 495.638 644.832 499.375Z" fill="#0070C0"/><path d="M635.37 518.644 635.579 517.598 643.58 519.198 643.371 520.244Z" fill="#0070C0"/><path d="M665.554 478.233 670.885 474.497 671.497 475.372 666.167 479.108Z" fill="#0070C0"/><path d="M670.671 485.6 677.071 485.6 677.071 486.667 670.671 486.667Z" fill="#0070C0"/><path d="M664.009 498.848 664.582 497.948 670.448 501.682 669.876 502.582Z" fill="#0070C0"/><path d="M644.004 477.6 650.404 477.6 650.404 478.667 644.004 478.667Z" fill="#0070C0"/><path d="M617.561 508.995 618.173 508.12 623.506 511.854 622.894 512.728Z" fill="#0070C0"/><path d="M612.004 519.2 618.404 519.2 618.404 520.267 612.004 520.267Z" fill="#0070C0"/><path d="M686.898 504.346 691.987 501.02 692.571 501.913 687.481 505.239Z" fill="#0070C0"/><path d="M687.613 489.174 688.261 488.327 693.344 492.212 692.696 493.06Z" fill="#0070C0"/><path d="M702.136 486.638 702.608 480.205 703.673 480.283 703.201 486.717Z" fill="#0070C0"/><path d="M628.15 498.007 628.194 496.941 634.698 497.212 634.654 498.278Z" fill="#0070C0"/><path d="M630.02 485.44 630.667 484.592 635.751 488.477 635.103 489.325Z" fill="#0070C0"/><path d="M656.187 462.121 656.383 461.074 664.917 462.674 664.72 463.721Z" fill="#0070C0"/><path d="M657.26 505.965 658.316 505.814 659.383 513.281 658.327 513.431Z" fill="#0070C0"/><path d="M718.416 481.281 718.893 480.327 724.226 482.994 723.749 483.948Z" fill="#0070C0"/><path d="M607.388 463.588 608.077 462.773 615.011 468.639 614.321 469.454Z" fill="#0070C0"/><path d="M590.887 500.632 596.218 496.896 596.831 497.771 591.5 501.507Z" fill="#0070C0"/><path d="M615.417 488.374 619.684 485.174 620.324 486.027 616.057 489.227Z" fill="#0070C0"/><path d="M674.048 444.356 678.003 438.635 678.88 439.241 674.926 444.962Z" fill="#0070C0"/><path d="M657.955 490.407 659.47 484.42 660.503 484.681 658.988 490.668Z" fill="#0070C0"/><path d="M637.042 511.104 638.503 505.155 639.539 505.409 638.078 511.359Z" fill="#0070C0"/><path d="M730.915 436.031 733.288 429.716 734.286 430.091 731.912 436.406Z" fill="#0070C0"/><path d="M719.237 429.611 720.284 429.41 721.619 436.401 720.571 436.601Z" fill="#0070C0"/><path d="M688.09 438.281 688.336 431.887 689.403 431.928 689.157 438.322Z" fill="#0070C0"/><path d="M651.646 430.816 652.523 430.209 655.561 434.592 654.684 435.2Z" fill="#0070C0"/><path d="M619.982 434.902 622.814 430.742 623.695 431.342 620.863 435.502Z" fill="#0070C0"/><path d="M592.854 433.4 593.721 432.776 597.271 437.714 596.404 438.337Z" fill="#0070C0"/><path d="M704.32 438.391 708.587 431.991 709.474 432.583 705.208 438.983Z" fill="#0070C0"/><path d="M436.752 273.451 441.553 269.719 442.207 270.56 437.406 274.292Z" fill="#0070C0"/><path d="M582.028 143.21 588.963 141.612 589.202 142.651 582.268 144.249Z" fill="#0070C0"/><path d="M580.761 170.501 586.092 166.765 586.705 167.64 581.374 171.376Z" fill="#0070C0"/><path d="M585.871 177.867 592.271 177.867 592.271 178.933 585.871 178.933Z" fill="#0070C0"/><path d="M579.195 191.111 579.767 190.211 585.634 193.945 585.061 194.845Z" fill="#0070C0"/><path d="M585.541 214.781 589.808 211.582 590.448 212.436 586.181 215.635Z" fill="#0070C0"/><path d="M578.598 233.198 579.273 232.372 585.14 237.171 584.464 237.997Z" fill="#0070C0"/><path d="M579.918 259.992 580.103 258.941 589.17 260.541 588.984 261.592Z" fill="#0070C0"/><path d="M563.146 260.664 567.946 256.931 568.6 257.772 563.8 261.505Z" fill="#0070C0"/><path d="M579.471 222.667 585.871 222.667 585.871 223.733 579.471 223.733Z" fill="#0070C0"/><path d="M552.054 158.802 552.94 158.208 556.977 164.233 556.092 164.826Z" fill="#0070C0"/><path d="M549.922 223.858 550.807 223.264 554.846 229.288 553.961 229.881Z" fill="#0070C0"/><path d="M532.619 163.751 533.516 163.173 537.045 168.643 536.148 169.222Z" fill="#0070C0"/><path d="M518.85 276.887 522.805 271.166 523.682 271.773 519.728 277.494Z" fill="#0070C0"/><path d="M539.748 213.856 544.763 208.174 545.563 208.88 540.548 214.562Z" fill="#0070C0"/><path d="M452.009 278.271 453.95 269.273 454.992 269.497 453.05 278.496Z" fill="#0070C0"/><path d="M489.97 276.612 490.214 270.216 491.281 270.257 491.037 276.653Z" fill="#0070C0"/><path d="M455.123 231.338 452.356 225.312C452.115 225.671 451.881 226.035 451.643 226.397L454.133 231.733 455.123 231.338Z" fill="#0070C0"/><path d="M540.992 156.814 543.615 152.551C543.07 152.759 542.523 152.961 541.98 153.173L540.083 156.255 540.992 156.814Z" fill="#0070C0"/><path d="M570.095 157.702 575.425 153.966 576.038 154.84 570.707 158.576Z" fill="#0070C0"/><path d="M448.263 263.705 448.797 255.171 449.862 255.238 449.327 263.771Z" fill="#0070C0"/><path d="M447.876 245.771 452.672 240.434 453.467 241.148 448.67 246.484Z" fill="#0070C0"/><path d="M472.359 260.309 473.227 259.689 478.56 267.155 477.692 267.775Z" fill="#0070C0"/><path d="M490.628 191.3 495.959 187.564 496.572 188.438 491.241 192.174Z" fill="#0070C0"/><path d="M549.881 196.482 550.391 195.545 556.259 198.743 555.748 199.68Z" fill="#0070C0"/><path d="M481.766 211.452 481.976 210.406 489.976 212.006 489.767 213.052Z" fill="#0070C0"/><path d="M495.418 235.574 499.685 232.374 500.325 233.227 496.058 236.427Z" fill="#0070C0"/><path d="M488.469 254 489.144 253.175 495.011 257.974 494.335 258.8Z" fill="#0070C0"/><path d="M497.055 265.253 497.62 264.349 501.887 267.016 501.322 267.919Z" fill="#0070C0"/><path d="M489.338 243.467 495.738 243.467 495.738 244.533 489.338 244.533Z" fill="#0070C0"/><path d="M511.962 171.034 517.293 167.298 517.905 168.172 512.574 171.908Z" fill="#0070C0"/><path d="M517.071 178.4 523.471 178.4 523.471 179.467 517.071 179.467Z" fill="#0070C0"/><path d="M510.393 191.647 510.966 190.747 516.832 194.48 516.26 195.38Z" fill="#0070C0"/><path d="M512.816 223.044 514.416 217.711 515.436 218.017 513.837 223.35Z" fill="#0070C0"/><path d="M509.8 233.734 510.476 232.908 516.342 237.708 515.667 238.533Z" fill="#0070C0"/><path d="M512.51 252.981 513.075 252.077 517.343 254.742 516.778 255.646Z" fill="#0070C0"/><path d="M560.746 221.638 567.146 221.638 567.146 222.705 560.746 222.705Z" fill="#0070C0"/><path d="M479.965 219.38 480.578 218.505 485.911 222.238 485.298 223.113Z" fill="#0070C0"/><path d="M468 212 462.128 212C461.842 212.356 461.552 212.708 461.269 213.067L468 213.067 468 212Z" fill="#0070C0"/><path d="M465.053 228.087 470.919 224.353 471.491 225.253 465.625 228.987Z" fill="#0070C0"/><path d="M533.306 197.152 538.395 193.826 538.979 194.719 533.889 198.045Z" fill="#0070C0"/><path d="M534.007 181.965 534.655 181.118 539.738 185.003 539.09 185.851Z" fill="#0070C0"/><path d="M548.54 179.433 549.012 172.999 550.077 173.077 549.605 179.511Z" fill="#0070C0"/><path d="M529.492 267.605 529.536 266.539 536.04 266.81 535.996 267.876Z" fill="#0070C0"/><path d="M531.345 255.033 531.992 254.185 537.076 258.07 536.428 258.918Z" fill="#0070C0"/><path d="M546.39 246.288 547.392 245.92 549.788 252.447 548.786 252.815Z" fill="#0070C0"/><path d="M530.094 223.3 535.425 219.564 536.037 220.439 530.706 224.175Z" fill="#0070C0"/><path d="M528.12 234.375 528.434 233.355 535.367 235.488 535.053 236.509Z" fill="#0070C0"/><path d="M548.263 265.781 548.836 264.881 554.703 268.615 554.13 269.515Z" fill="#0070C0"/><path d="M564.262 211.379 564.834 210.479 570.701 214.212 570.128 215.112Z" fill="#0070C0"/><path d="M561.007 240.913 565.274 237.714 565.914 238.568 561.647 241.767Z" fill="#0070C0"/><path d="M555.902 188.532 556.111 187.486 561.914 188.642 561.706 189.688Z" fill="#0070C0"/><path d="M464.287 246.215 465.342 246.053 466.409 252.986 465.354 253.148Z" fill="#0070C0"/><path d="M468.954 241.349 476.42 239.749 476.644 240.792 469.177 242.392Z" fill="#0070C0"/><path d="M503.674 198.777 504.73 198.626 505.797 206.092 504.741 206.243Z" fill="#0070C0"/><path d="M564.827 174.082 565.304 173.128 570.637 175.795 570.16 176.749Z" fill="#0070C0"/><path d="M570.051 201.687 574.006 195.966 574.883 196.573 570.929 202.294Z" fill="#0070C0"/><path d="M504.369 183.198 505.884 177.211 506.917 177.472 505.402 183.459Z" fill="#0070C0"/><path d="M475.565 252.527 477.077 246.54 478.11 246.8 476.598 252.788Z" fill="#0070C0"/><path d="M495.951 221.174 500.218 217.974 500.858 218.827 496.591 222.027Z" fill="#0070C0"/><path d="M574.174 243.811 575.06 243.217 579.102 249.24 578.216 249.834Z" fill="#0070C0"/><path d="M483.432 203.907 484.892 197.958 485.928 198.212 484.468 204.162Z" fill="#0070C0"/><path d="M523.676 208.912 527.943 205.713 528.583 206.567 524.316 209.766Z" fill="#0070C0"/><path d="M438.895 307.559 444.761 303.292 445.389 304.154 439.522 308.421Z" fill="#0070C0"/><path d="M582.028 296.807 588.961 295.206 589.201 296.246 582.268 297.846Z" fill="#0070C0"/><path d="M580.766 324.08 586.099 320.347 586.712 321.221 581.379 324.955Z" fill="#0070C0"/><path d="M585.871 331.467 592.271 331.467 592.271 332.533 585.871 332.533Z" fill="#0070C0"/><path d="M579.19 344.712 579.762 343.812 585.629 347.546 585.056 348.446Z" fill="#0070C0"/><path d="M585.552 368.374 589.818 365.174 590.458 366.027 586.192 369.227Z" fill="#0070C0"/><path d="M578.604 386.792 579.28 385.966 585.146 390.766 584.471 391.592Z" fill="#0070C0"/><path d="M579.92 413.594 580.106 412.543 589.172 414.143 588.987 415.194Z" fill="#0070C0"/><path d="M563.14 414.271 567.94 410.538 568.594 411.379 563.794 415.112Z" fill="#0070C0"/><path d="M579.471 376.267 585.871 376.267 585.871 377.333 579.471 377.333Z" fill="#0070C0"/><path d="M552.059 312.387 552.944 311.793 556.984 317.816 556.099 318.41Z" fill="#0070C0"/><path d="M488.55 309.75 489.446 309.172 492.975 314.641 492.079 315.219Z" fill="#0070C0"/><path d="M524.183 305.158 528.137 299.437 529.015 300.044 525.06 305.764Z" fill="#0070C0"/><path d="M549.924 377.463 550.809 376.87 554.847 382.894 553.961 383.487Z" fill="#0070C0"/><path d="M532.622 317.347 533.518 316.769 537.047 322.239 536.151 322.818Z" fill="#0070C0"/><path d="M518.848 430.486 522.802 424.766 523.68 425.372 519.725 431.093Z" fill="#0070C0"/><path d="M539.749 367.461 544.765 361.78 545.565 362.486 540.548 368.167Z" fill="#0070C0"/><path d="M452.023 431.863 453.966 422.865 455.008 423.09 453.065 432.088Z" fill="#0070C0"/><path d="M489.97 430.2 490.216 423.803 491.283 423.844 491.037 430.241Z" fill="#0070C0"/><path d="M448.05 292.491 448.47 291.51 455.937 294.71 455.517 295.69Z" fill="#0070C0"/><path d="M441.885 325.024 442.418 318.091 443.481 318.172 442.947 325.106Z" fill="#0070C0"/><path d="M449.381 374.338 450.37 373.943 453.57 381.943 452.581 382.339Z" fill="#0070C0"/><path d="M443.549 362.126 448.349 354.126 449.264 354.675 444.464 362.675Z" fill="#0070C0"/><path d="M490.014 295.383 494.814 290.049 495.608 290.764 490.807 296.097Z" fill="#0070C0"/><path d="M503.923 290.796 504.613 289.981 511.546 295.848 510.857 296.663Z" fill="#0070C0"/><path d="M539.734 290.847 540.293 289.939 547.226 294.206 546.667 295.114Z" fill="#0070C0"/><path d="M540.093 309.847 544.359 302.914 545.268 303.473 541.001 310.406Z" fill="#0070C0"/><path d="M559.522 300.035 570.188 295.235 570.626 296.207 559.96 301.008Z" fill="#0070C0"/><path d="M570.1 311.281 575.433 307.547 576.045 308.422 570.712 312.156Z" fill="#0070C0"/><path d="M472.271 290.933 473.338 290.933 473.338 297.333 472.271 297.333Z" fill="#0070C0"/><path d="M459.399 302.13 466.331 301.061 466.493 302.116 459.561 303.185Z" fill="#0070C0"/><path d="M474.951 311.27 476.005 311.107 477.074 318.039 476.02 318.202Z" fill="#0070C0"/><path d="M477.5 301.073 484.968 299.476 485.191 300.519 477.723 302.116Z" fill="#0070C0"/><path d="M452.228 326.224 458.095 321.957 458.722 322.82 452.856 327.087Z" fill="#0070C0"/><path d="M448.256 417.305 448.79 408.771 449.855 408.838 449.32 417.371Z" fill="#0070C0"/><path d="M447.878 399.365 452.675 394.029 453.469 394.743 448.672 400.079Z" fill="#0070C0"/><path d="M472.353 413.903 473.221 413.283 478.554 420.749 477.686 421.369Z" fill="#0070C0"/><path d="M490.637 344.884 495.97 341.15 496.582 342.025 491.249 345.758Z" fill="#0070C0"/><path d="M549.893 350.081 550.404 349.144 556.271 352.345 555.76 353.281Z" fill="#0070C0"/><path d="M481.769 365.049 481.979 364.003 489.979 365.603 489.77 366.649Z" fill="#0070C0"/><path d="M495.402 389.174 499.669 385.975 500.309 386.829 496.042 390.028Z" fill="#0070C0"/><path d="M488.475 407.595 489.15 406.769 495.017 411.568 494.341 412.394Z" fill="#0070C0"/><path d="M497.055 418.853 497.62 417.949 501.887 420.616 501.322 421.519Z" fill="#0070C0"/><path d="M489.338 397.067 495.738 397.067 495.738 398.133 489.338 398.133Z" fill="#0070C0"/><path d="M511.969 324.616 517.302 320.883 517.914 321.757 512.581 325.491Z" fill="#0070C0"/><path d="M517.071 332 523.471 332 523.471 333.067 517.071 333.067Z" fill="#0070C0"/><path d="M510.399 345.251 510.972 344.351 516.838 348.084 516.266 348.984Z" fill="#0070C0"/><path d="M512.812 376.637 514.412 371.304 515.433 371.61 513.833 376.943Z" fill="#0070C0"/><path d="M509.789 387.369 510.464 386.543 516.333 391.339 515.658 392.165Z" fill="#0070C0"/><path d="M512.522 406.586 513.087 405.682 517.354 408.349 516.789 409.253Z" fill="#0070C0"/><path d="M560.746 375.238 567.146 375.238 567.146 376.305 560.746 376.305Z" fill="#0070C0"/><path d="M479.96 372.986 480.573 372.111 485.906 375.845 485.293 376.719Z" fill="#0070C0"/><path d="M490.404 324 496.804 324 496.804 325.067 490.404 325.067Z" fill="#0070C0"/><path d="M463.96 355.385 464.572 354.511 469.905 358.244 469.293 359.119Z" fill="#0070C0"/><path d="M458.404 365.6 464.804 365.6 464.804 366.667 458.404 366.667Z" fill="#0070C0"/><path d="M465.053 381.69 470.919 377.956 471.492 378.856 465.625 382.59Z" fill="#0070C0"/><path d="M533.329 350.757 538.417 347.428 539.001 348.32 533.913 351.65Z" fill="#0070C0"/><path d="M534.007 335.57 534.655 334.722 539.738 338.608 539.09 339.455Z" fill="#0070C0"/><path d="M548.535 333.017 549.01 326.583 550.075 326.661 549.6 333.095Z" fill="#0070C0"/><path d="M529.486 421.204 529.53 420.139 536.034 420.409 535.99 421.475Z" fill="#0070C0"/><path d="M531.341 408.639 531.988 407.791 537.072 411.677 536.424 412.524Z" fill="#0070C0"/><path d="M546.393 399.895 547.395 399.527 549.791 406.054 548.789 406.422Z" fill="#0070C0"/><path d="M530.091 376.899 535.421 373.163 536.034 374.037 530.703 377.773Z" fill="#0070C0"/><path d="M528.122 387.977 528.436 386.956 535.37 389.09 535.056 390.11Z" fill="#0070C0"/><path d="M548.269 419.385 548.842 418.485 554.708 422.219 554.136 423.119Z" fill="#0070C0"/><path d="M564.268 364.983 564.84 364.083 570.707 367.816 570.134 368.716Z" fill="#0070C0"/><path d="M561 394.51 565.267 391.311 565.907 392.165 561.64 395.364Z" fill="#0070C0"/><path d="M474.555 344.403 474.6 343.337 481.104 343.608 481.059 344.674Z" fill="#0070C0"/><path d="M476.405 331.837 477.053 330.989 482.136 334.875 481.488 335.722Z" fill="#0070C0"/><path d="M555.898 342.137 556.106 341.091 561.91 342.247 561.701 343.293Z" fill="#0070C0"/><path d="M464.289 399.801 465.343 399.639 466.412 406.571 465.358 406.733Z" fill="#0070C0"/><path d="M468.97 394.939 476.438 393.343 476.661 394.386 469.193 395.983Z" fill="#0070C0"/><path d="M502.581 308.523 502.777 307.476 511.31 309.076 511.114 310.123Z" fill="#0070C0"/><path d="M503.671 352.37 504.727 352.219 505.793 359.685 504.738 359.836Z" fill="#0070C0"/><path d="M564.822 327.68 565.299 326.726 570.632 329.392 570.155 330.346Z" fill="#0070C0"/><path d="M453.792 309.996 454.481 309.181 461.415 315.048 460.725 315.863Z" fill="#0070C0"/><path d="M437.292 347.03 442.623 343.294 443.236 344.169 437.905 347.905Z" fill="#0070C0"/><path d="M461.817 334.774 466.084 331.574 466.724 332.427 462.457 335.627Z" fill="#0070C0"/><path d="M520.45 290.754 524.404 285.033 525.282 285.639 521.327 291.36Z" fill="#0070C0"/><path d="M570.049 355.287 574.003 349.567 574.88 350.173 570.926 355.894Z" fill="#0070C0"/><path d="M504.361 336.793 505.873 330.806 506.907 331.067 505.394 337.054Z" fill="#0070C0"/><path d="M475.559 406.132 477.073 400.145 478.106 400.406 476.591 406.393Z" fill="#0070C0"/><path d="M495.951 374.774 500.217 371.574 500.857 372.427 496.591 375.627Z" fill="#0070C0"/><path d="M435.904 390.65 436.113 389.604 444.114 391.204 443.905 392.25Z" fill="#0070C0"/><path d="M574.172 397.416 575.057 396.821 579.099 402.845 578.213 403.439Z" fill="#0070C0"/><path d="M483.448 357.518 484.907 351.568 485.943 351.822 484.484 357.772Z" fill="#0070C0"/><path d="M523.684 362.507 527.951 359.307 528.591 360.16 524.324 363.36Z" fill="#0070C0"/><path d="M577.307 282.428 579.681 276.113 580.678 276.488 578.305 282.803Z" fill="#0070C0"/><path d="M565.628 276.01 566.675 275.81 568.01 282.801 566.962 283.001Z" fill="#0070C0"/><path d="M534.488 284.69 534.733 278.296 535.8 278.337 535.555 284.731Z" fill="#0070C0"/><path d="M498.048 277.226 498.925 276.618 501.963 281.002 501.086 281.609Z" fill="#0070C0"/><path d="M466.368 281.3 469.197 277.138 470.078 277.737 467.249 281.899Z" fill="#0070C0"/><path d="M439.252 279.809 440.119 279.185 443.669 284.122 442.802 284.746Z" fill="#0070C0"/><path d="M550.713 284.799 554.979 278.399 555.867 278.991 551.6 285.391Z" fill="#0070C0"/><path d="M582.034 450.408 588.968 448.808 589.208 449.847 582.274 451.447Z" fill="#0070C0"/><path d="M580.773 477.676 586.106 473.942 586.718 474.817 581.385 478.55Z" fill="#0070C0"/><path d="M585.871 485.067 592.271 485.067 592.271 486.133 585.871 486.133Z" fill="#0070C0"/><path d="M579.206 498.319 579.779 497.419 585.646 501.152 585.073 502.052Z" fill="#0070C0"/><path d="M589.818 518.774 585.551 521.974 585.722 522.203C586.087 522.253 586.452 522.308 586.819 522.356L590.458 519.628 589.818 518.774Z" fill="#0070C0"/><path d="M552.059 465.995 552.944 465.402 556.982 471.426 556.096 472.019Z" fill="#0070C0"/><path d="M488.545 463.346 489.441 462.768 492.97 468.236 492.074 468.815Z" fill="#0070C0"/><path d="M524.181 458.753 528.136 453.032 529.013 453.639 525.059 459.36Z" fill="#0070C0"/><path d="M532.625 470.943 533.521 470.365 537.05 475.835 536.154 476.414Z" fill="#0070C0"/><path d="M490.011 448.963 494.808 443.627 495.602 444.341 490.805 449.677Z" fill="#0070C0"/><path d="M503.925 444.389 504.614 443.574 511.548 449.441 510.858 450.256Z" fill="#0070C0"/><path d="M539.74 444.448 540.299 443.539 547.233 447.806 546.674 448.714Z" fill="#0070C0"/><path d="M540.091 463.463 544.36 456.531 545.268 457.09 540.999 464.022Z" fill="#0070C0"/><path d="M559.528 453.632 570.194 448.832 570.632 449.804 559.966 454.605Z" fill="#0070C0"/><path d="M570.088 464.899 575.419 461.163 576.032 462.037 570.701 465.773Z" fill="#0070C0"/><path d="M472.271 444.533 473.338 444.533 473.338 450.933 472.271 450.933Z" fill="#0070C0"/><path d="M477.506 454.672 484.974 453.076 485.197 454.119 477.729 455.715Z" fill="#0070C0"/><path d="M549.894 503.688 550.405 502.751 556.271 505.952 555.761 506.888Z" fill="#0070C0"/><path d="M511.974 478.212 517.307 474.478 517.919 475.353 512.586 479.086Z" fill="#0070C0"/><path d="M517.071 485.6 523.471 485.6 523.471 486.667 517.071 486.667Z" fill="#0070C0"/><path d="M490.404 477.6 496.804 477.6 496.804 478.667 490.404 478.667Z" fill="#0070C0"/><path d="M533.302 504.344 538.391 501.018 538.975 501.911 533.885 505.237Z" fill="#0070C0"/><path d="M534.007 489.174 534.655 488.327 539.738 492.212 539.09 493.06Z" fill="#0070C0"/><path d="M548.537 486.611 549.012 480.177 550.077 480.255 549.602 486.689Z" fill="#0070C0"/><path d="M555.893 495.741 556.101 494.694 561.905 495.851 561.696 496.897Z" fill="#0070C0"/><path d="M502.585 462.125 502.781 461.077 511.314 462.677 511.118 463.725Z" fill="#0070C0"/><path d="M564.818 481.278 565.295 480.324 570.628 482.99 570.151 483.944Z" fill="#0070C0"/><path d="M520.448 444.353 524.402 438.632 525.28 439.239 521.325 444.96Z" fill="#0070C0"/><path d="M570.047 508.887 574.001 503.166 574.879 503.772 570.924 509.493Z" fill="#0070C0"/><path d="M504.354 490.4 505.869 484.413 506.902 484.675 505.387 490.662Z" fill="#0070C0"/><path d="M577.294 436.008 579.669 429.693 580.666 430.068 578.291 436.383Z" fill="#0070C0"/><path d="M565.632 429.615 566.68 429.415 568.014 436.406 566.966 436.606Z" fill="#0070C0"/><path d="M534.493 438.287 534.739 431.892 535.806 431.933 535.56 438.328Z" fill="#0070C0"/><path d="M498.052 430.82 498.929 430.212 501.967 434.596 501.09 435.203Z" fill="#0070C0"/><path d="M466.381 434.903 469.213 430.743 470.094 431.343 467.262 435.502Z" fill="#0070C0"/><path d="M550.72 438.399 554.987 431.999 555.874 432.591 551.608 438.991Z" fill="#0070C0"/><path d="M428.426 296.82 435.36 295.222 435.6 296.262 428.665 297.86Z" fill="#0070C0"/><path d="M427.159 324.097 432.49 320.361 433.103 321.236 427.772 324.971Z" fill="#0070C0"/><path d="M432.271 331.467 438.671 331.467 438.671 332.533 432.271 332.533Z" fill="#0070C0"/><path d="M425.596 344.721 426.169 343.821 432.036 347.555 431.463 348.455Z" fill="#0070C0"/><path d="M431.951 368.374 436.217 365.174 436.857 366.028 432.591 369.228Z" fill="#0070C0"/><path d="M425.871 376.267 432.271 376.267 432.271 377.333 425.871 377.333Z" fill="#0070C0"/></g></svg>